<?xml version="1.0" encoding="UTF-8"?>
<svg id="Layer_2" data-name="Layer 2" xmlns="http://www.w3.org/2000/svg" xmlns:xlink="http://www.w3.org/1999/xlink" viewBox="0 0 188.25 229.3">
  <defs>
    <style>
      .cls-1 {
        fill: #e5e5e5;
      }

      .cls-1, .cls-2 {
        stroke-width: 0px;
      }

      .cls-3 {
        stroke: url(#linear-gradient-2);
      }

      .cls-3, .cls-2, .cls-4 {
        fill: none;
      }

      .cls-3, .cls-4 {
        stroke-miterlimit: 10;
        stroke-width: 2.61px;
      }

      .cls-5 {
        clip-path: url(#clippath-1);
      }

      .cls-4 {
        stroke: url(#linear-gradient);
      }

      .cls-6 {
        clip-path: url(#clippath);
      }
    </style>
    <clipPath id="clippath">
      <path class="cls-2" d="m124.21,60.3l.14,148.66c.01,15.62-16.89,25.4-30.43,17.6l-20.13-11.6c-6.28-3.62-10.15-10.31-10.16-17.55l-.13-91.92c-.01-7.24,3.84-13.94,10.1-17.58l49.06-28.5c.69-.4,1.55.1,1.55.89Z"/>
    </clipPath>
    <linearGradient id="linear-gradient" x1="132.98" y1="150.07" x2="69.53" y2="150.07" gradientUnits="userSpaceOnUse">
      <stop offset="0" stop-color="#357cb2"/>
      <stop offset="1" stop-color="#273a88"/>
    </linearGradient>
    <clipPath id="clippath-1">
      <path class="cls-2" d="m188.25,53.38v68.63c0,4.86-2.59,9.35-6.8,11.78,0,0-17.8,10.33-23.76,13.72-3.13,1.76-6.44,2.57-9.67,2.57-10.27,0-19.68-8.16-19.79-19.59l-.36-35.72-.3-30.23c-.05-4.9,2.55-9.46,6.8-11.92l33.47-19.33c3.06-1.77,6.24-1.91,9.27-1.25,4.02.89,8.23,4.99,9.38,8.95,1.14,3.93,1.76,8.1,1.76,12.4Z"/>
    </clipPath>
    <linearGradient id="linear-gradient-2" x1="197.46" y1="94.86" x2="134.17" y2="94.86" xlink:href="#linear-gradient"/>
  </defs>
  <g id="Layer_1-2" data-name="Layer 1">
    <g>
      <path class="cls-1" d="m124.21,60.3l.14,148.66c.01,15.62-16.89,25.4-30.43,17.6l-20.13-11.6c-6.28-3.62-10.15-10.31-10.16-17.55l-.13-91.92c-.01-7.24,3.84-13.94,10.1-17.58l49.06-28.5c.69-.4,1.55.1,1.55.89Z"/>
      <g class="cls-6">
        <path class="cls-4" d="m131.54,66.09l.14,148.66c.01,15.62-16.89,25.4-30.43,17.6l-20.13-11.6c-6.28-3.62-10.15-10.31-10.16-17.55l-.13-91.92c-.01-7.24,3.84-13.94,10.1-17.58l49.06-28.5c.69-.4,1.55.1,1.55.89Z"/>
      </g>
      <path class="cls-1" d="m178.83,19.8c.47.48.36,1.28-.22,1.62l-44.92,25.82-50.6,28.03-3.26,1.94-1.14.68c-16.83,10.1-37.76,10.49-54.95,1.03L.54,66.16c-.71-.39-.72-1.4-.02-1.8L87.98,14.14C100.26,6.77,116.89.6,134.74.03c13.48-.43,23.87,3.68,32.25,9.15,3.61,2.36,9.56,8.29,11.84,10.62Z"/>
      <path class="cls-1" d="m188.25,53.38v68.63c0,4.86-2.59,9.35-6.8,11.78,0,0-17.8,10.33-23.76,13.72-3.13,1.76-6.44,2.57-9.67,2.57-10.27,0-19.68-8.16-19.79-19.59l-.36-35.72-.3-30.23c-.05-4.9,2.55-9.46,6.8-11.92l33.47-19.33c3.06-1.77,6.24-1.91,9.27-1.25,4.02.89,8.23,4.99,9.38,8.95,1.14,3.93,1.76,8.1,1.76,12.4Z"/>
      <g class="cls-5">
        <path class="cls-3" d="m196.15,57.41v68.63c0,4.86-2.59,9.35-6.8,11.78,0,0-17.8,10.33-23.76,13.72-3.13,1.76-6.44,2.57-9.67,2.57-10.27,0-19.68-8.16-19.79-19.59l-.36-35.72-.3-30.23c-.05-4.9,2.55-9.46,6.8-11.92l33.47-19.33c.18-.11.37-.21.55-.3,7.17-3.73,15.89.36,18.13,8.13,1.12,3.9,1.72,8.02,1.72,12.27Z"/>
      </g>
    </g>
  </g>
</svg>