<?xml version="1.0" encoding="UTF-8"?>
<svg id="Layer_2" data-name="Layer 2" xmlns="http://www.w3.org/2000/svg" xmlns:xlink="http://www.w3.org/1999/xlink" viewBox="0 0 17.52 21.34">
  <defs>
    <style>
      .cls-1 {
        stroke: #fff;
        stroke-miterlimit: 10;
        stroke-width: .24px;
      }

      .cls-1, .cls-2 {
        fill: none;
      }

      .cls-3 {
        fill: #262728;
      }

      .cls-3, .cls-2 {
        stroke-width: 0px;
      }

      .cls-4 {
        clip-path: url(#clippath-1);
      }

      .cls-5 {
        clip-path: url(#clippath);
      }
    </style>
    <clipPath id="clippath">
      <path class="cls-2" d="m11.56,5.61v13.84c.01,1.45-1.56,2.36-2.82,1.64l-1.87-1.08c-.58-.34-.94-.96-.95-1.63v-8.56c-.01-.67.35-1.3.93-1.64l4.57-2.65c.06-.04.14,0,.14.08Z"/>
    </clipPath>
    <clipPath id="clippath-1">
      <path class="cls-2" d="m17.52,4.97v6.39c0,.45-.24.87-.63,1.1,0,0-1.66.96-2.21,1.28-.29.16-.6.24-.9.24-.96,0-1.83-.76-1.84-1.82l-.03-3.32-.03-2.81c0-.46.24-.88.63-1.11l3.12-1.8c.28-.16.58-.18.86-.12.37.08.77.46.87.83s.16.75.16,1.15Z"/>
    </clipPath>
  </defs>
  <g id="Layer_1-2" data-name="Layer 1">
    <g>
      <path class="cls-3" d="m11.56,5.61v13.84c.01,1.45-1.56,2.36-2.82,1.64l-1.87-1.08c-.58-.34-.94-.96-.95-1.63v-8.56c-.01-.67.35-1.3.93-1.64l4.57-2.65c.06-.04.14,0,.14.08Z"/>
      <g class="cls-5">
        <path class="cls-1" d="m12.24,6.15v13.84c.01,1.45-1.56,2.36-2.82,1.64l-1.87-1.08c-.58-.34-.94-.96-.95-1.63v-8.56c-.01-.67.35-1.3.93-1.64l4.57-2.65c.06-.04.14,0,.14.08Z"/>
      </g>
      <path class="cls-3" d="m16.64,1.84s.03.12-.02.15l-4.18,2.4-4.71,2.61-.3.18-.11.06c-1.57.94-3.51.98-5.11.1L.05,6.16c-.07-.04-.07-.13,0-.17L8.19,1.32C9.33.63,10.88.06,12.54,0c1.25-.04,2.22.34,3,.85.34.22.89.77,1.1.99Z"/>
      <path class="cls-3" d="m17.52,4.97v6.39c0,.45-.24.87-.63,1.1,0,0-1.66.96-2.21,1.28-.29.16-.6.24-.9.24-.96,0-1.83-.76-1.84-1.82l-.03-3.32-.03-2.81c0-.46.24-.88.63-1.11l3.12-1.8c.28-.16.58-.18.86-.12.37.08.77.46.87.83s.16.75.16,1.15Z"/>
      <g class="cls-4">
        <path class="cls-1" d="m18.26,5.34v6.39c0,.45-.24.87-.63,1.1,0,0-1.66.96-2.21,1.28-.29.16-.6.24-.9.24-.96,0-1.83-.76-1.84-1.82l-.03-3.32-.03-2.81c0-.46.24-.88.63-1.11l3.12-1.8s.03-.02.05-.03c.67-.35,1.48.03,1.69.76.1.36.16.75.16,1.14Z"/>
      </g>
    </g>
  </g>
</svg>